<svg width="262" height="40" viewBox="0 0 262 40" fill="none" xmlns="http://www.w3.org/2000/svg">
<path d="M25.7843 3.30807L22.8943 10.4193C22.7363 10.8244 22.2621 11.027 21.8331 10.8694C21.4945 10.7344 21.3138 10.4193 21.3364 10.0818L21.7203 2.43042C21.788 1.26021 22.7814 0.382551 23.9329 0.427559C25.107 0.495071 25.9875 1.48525 25.9424 2.63295C25.9198 2.85799 25.8521 3.08303 25.7843 3.30807Z" fill="#F16037"/>
<path fill-rule="evenodd" clip-rule="evenodd" d="M32.8965 0H37.6153C38.1346 0 38.6313 0.517593 38.6088 0.990177C38.6088 1.54795 38.342 1.77851 38.1606 1.93531C38.1517 1.94299 38.1431 1.95049 38.1346 1.95785L26.8455 12.8048V12.8273C26.4843 13.2099 25.8746 13.2099 25.5134 12.8273C25.2199 12.5347 25.1747 12.1072 25.3553 11.7471C25.3553 11.7471 30.7515 1.6878 31.1805 0.900161C31.6095 0.11252 32.5352 0 32.8965 0ZM39.8731 19.8482C39.8731 30.8302 30.9547 39.7193 19.9366 39.7193C8.94098 39.7193 0 30.8302 0 19.8482C0 9.83396 7.42823 1.55247 17.0917 0.179729C17.1341 0.169178 17.1764 0.163574 17.2164 0.158277C17.2618 0.152278 17.3041 0.146674 17.3401 0.134721C17.6562 0.157225 17.9271 0.359762 18.0174 0.674818L18.04 0.96737L18.8077 9.90147L18.8302 10.149C18.8077 10.4641 18.5819 10.7116 18.2884 10.8016C18.2432 10.8016 18.198 10.8016 18.1529 10.8241C13.9082 11.6568 10.6795 15.3925 10.6795 19.8708C10.6795 24.9567 14.8113 29.0974 19.9366 29.0974C25.0392 29.0974 29.1711 24.9792 29.1936 19.9158V19.8933V19.8482V19.8032C29.2162 19.4882 29.4194 19.2406 29.7129 19.1506L29.8484 19.1281L38.812 17.2828L39.0152 17.2378H39.0603C39.399 17.2378 39.6925 17.4628 39.7828 17.8004C39.7828 17.8317 39.7877 17.863 39.7929 17.8966C39.7989 17.9354 39.8054 17.9772 39.8054 18.0254C39.8506 18.588 39.8731 19.2181 39.8731 19.8482ZM26.2585 19.8485C26.2585 23.3141 23.4362 26.1496 19.9591 26.1496C16.4821 26.1496 13.6372 23.3366 13.6372 19.8485C13.6372 16.3829 16.4595 13.5474 19.9591 13.5474C23.4362 13.5699 26.2585 16.3829 26.2585 19.8485Z" fill="url(#paint0_linear_1_1538)"/>
<path d="M36.5993 14.0875L29.2839 16.4504C28.8549 16.5854 28.4034 16.3604 28.2679 15.9328C28.155 15.5953 28.2905 15.2352 28.5388 15.0327L34.6575 10.3968C35.5832 9.6992 36.9154 9.87924 37.6153 10.8019C38.3152 11.7246 38.1346 13.0523 37.2089 13.7499C37.0283 13.9075 36.8025 14.02 36.5993 14.0875Z" fill="#F16037"/>
<path d="M61.5137 28.7838H65.8716C65.3523 30.4785 64.3362 31.8794 62.8233 32.9413C61.3104 34.0033 59.6621 34.5456 57.8557 34.5456C56.7719 34.5456 55.7106 34.3422 54.6494 33.9129C53.5881 33.4836 52.6623 32.8735 51.8269 32.1053C51.014 31.3145 50.3592 30.3881 49.9301 29.3035C49.4785 28.219 49.2527 27.0666 49.2527 25.8691C49.2527 23.5192 50.0882 21.5534 51.7591 19.904C53.43 18.2772 55.4622 17.4637 57.8331 17.4637C59.6395 17.4637 61.2879 18.006 62.8233 19.0906C64.3587 20.1751 65.3523 21.576 65.849 23.2933H61.4911C61.0621 22.5928 60.5427 22.0731 59.9556 21.7342C59.3686 21.3953 58.6234 21.2371 57.788 21.2371C56.388 21.2371 55.2816 21.689 54.4236 22.5702C53.5655 23.4514 53.1591 24.5812 53.1591 25.9369C53.1591 27.3378 53.6107 28.5127 54.5139 29.4165C55.4171 30.3429 56.5686 30.7948 57.9912 30.7948C58.7137 30.7948 59.3686 30.614 60.0008 30.2525C60.6105 29.8684 61.1298 29.3939 61.5137 28.7838Z" fill="#6E7171"/>
<path d="M75.9648 17.4637C78.3131 17.4637 80.3001 18.2987 81.9259 19.9685C83.5516 21.6383 84.3871 23.6692 84.3871 26.0385C84.3871 28.3853 83.5516 30.3936 81.8581 32.0634C80.1646 33.7332 78.155 34.5456 75.7841 34.5456C73.4584 34.5456 71.4488 33.7107 69.7779 32.0183C68.0844 30.3484 67.2489 28.3401 67.2489 26.0159C67.2489 23.624 68.0844 21.5932 69.7779 19.9233C71.4714 18.2987 73.5261 17.4637 75.9648 17.4637ZM75.8067 21.2321C75.1971 21.2321 74.5874 21.3675 74.0229 21.6157C73.4584 21.864 72.9391 22.225 72.51 22.6763C71.6294 23.5563 71.1778 24.6846 71.1778 26.0385C71.1778 27.3473 71.6294 28.4755 72.51 29.4007C73.3907 30.3259 74.4971 30.7772 75.8293 30.7772C77.1841 30.7772 78.3131 30.3259 79.1937 29.4233C80.0743 28.5207 80.5259 27.3924 80.5259 26.0385C80.5259 24.7072 80.0743 23.5789 79.1711 22.6312C78.2453 21.6834 77.1389 21.2321 75.8067 21.2321Z" fill="#6E7171"/>
<path d="M70.4779 16.1028L74.2036 12.1122H77.2745L81.0454 16.1028H77.2745L75.7165 14.2541L73.9101 16.1028H70.4779Z" fill="#6E7171"/>
<path d="M98.0704 28.7838H102.428C101.909 30.4785 100.893 31.8794 99.3801 32.9413C97.8672 34.0033 96.2189 34.5456 94.4125 34.5456C93.3286 34.5456 92.2674 34.3422 91.2061 33.9129C90.1449 33.4836 89.2191 32.8735 88.3836 32.1053C87.5707 31.3145 86.9159 30.3881 86.4869 29.3035C86.0353 28.219 85.8095 27.0666 85.8095 25.8691C85.8095 23.5192 86.645 21.5534 88.3159 19.904C89.9868 18.2772 92.019 17.4637 94.3899 17.4637C96.1963 17.4637 97.8446 18.006 99.3801 19.0906C100.916 20.1751 101.909 21.576 102.406 23.2933H98.0479C97.6188 22.5928 97.0995 22.0731 96.5124 21.7342C95.9028 21.3953 95.1802 21.2371 94.3447 21.2371C92.9448 21.2371 91.8384 21.689 90.9803 22.5702C90.1223 23.4514 89.6933 24.5812 89.6933 25.9369C89.6933 27.3378 90.1449 28.5127 91.0481 29.4165C91.9513 30.3429 93.1028 30.7948 94.5254 30.7948C95.2479 30.7948 95.9253 30.614 96.535 30.2525C97.1898 29.8684 97.6866 29.3939 98.0704 28.7838Z" fill="#6E7171"/>
<path d="M124.173 28.7838H128.531C128.012 30.4785 126.996 31.8794 125.483 32.9413C123.97 34.0033 122.322 34.5456 120.515 34.5456C119.431 34.5456 118.37 34.3422 117.309 33.9129C116.248 33.4836 115.322 32.8735 114.486 32.1053C113.651 31.3145 113.019 30.3881 112.59 29.3035C112.138 28.219 111.912 27.0666 111.912 25.8691C111.912 23.5192 112.748 21.5534 114.419 19.904C116.09 18.2772 118.122 17.4637 120.493 17.4637C122.299 17.4637 123.947 18.006 125.483 19.0906C127.018 20.1751 128.012 21.576 128.509 23.2933H124.151C123.722 22.5928 123.225 22.0731 122.615 21.7342C122.005 21.3953 121.283 21.2371 120.447 21.2371C119.048 21.2371 117.941 21.689 117.083 22.5702C116.225 23.4514 115.796 24.5812 115.796 25.9369C115.796 27.3378 116.248 28.5127 117.151 29.4165C118.054 30.3429 119.206 30.7948 120.628 30.7948C121.351 30.7948 122.028 30.614 122.638 30.2525C123.27 29.8684 123.789 29.3939 124.173 28.7838Z" fill="#6E7171"/>
<path d="M138.692 17.4637C141.04 17.4637 143.027 18.2987 144.653 19.9685C146.279 21.6383 147.114 23.6692 147.114 26.0385C147.114 28.3853 146.279 30.3936 144.585 32.0634C142.914 33.7332 140.882 34.5456 138.511 34.5456C136.186 34.5456 134.176 33.7107 132.505 32.0183C130.812 30.3484 129.976 28.3401 129.976 26.0159C129.976 23.624 130.812 21.5932 132.505 19.9233C134.199 18.2987 136.253 17.4637 138.692 17.4637ZM138.511 21.2321C137.902 21.2321 137.292 21.3675 136.727 21.6157C136.163 21.864 135.644 22.225 135.215 22.6763C134.334 23.5563 133.882 24.6846 133.882 26.0385C133.882 27.3473 134.334 28.4755 135.215 29.4007C136.095 30.3259 137.202 30.7772 138.534 30.7772C139.889 30.7772 141.018 30.3259 141.898 29.4233C142.802 28.5207 143.231 27.3924 143.231 26.0385C143.231 24.7072 142.779 23.5789 141.876 22.6312C140.973 21.6834 139.866 21.2321 138.511 21.2321Z" fill="#6E7171"/>
<path d="M133.205 16.1028L136.931 12.1122H140.002L143.773 16.1028H140.002L138.421 14.2541L136.637 16.1028H133.205Z" fill="#6E7171"/>
<path d="M160.73 28.7838H165.088C164.569 30.4785 163.553 31.8794 162.04 32.9413C160.527 34.0033 158.879 34.5456 157.072 34.5456C155.988 34.5456 154.927 34.3422 153.866 33.9129C152.805 33.4836 151.879 32.8735 151.043 32.1053C150.208 31.3145 149.598 30.3881 149.147 29.3035C148.695 28.219 148.492 27.0666 148.492 25.8691C148.492 23.5192 149.327 21.5534 150.998 19.904C152.669 18.2772 154.701 17.4637 157.072 17.4637C158.879 17.4637 160.527 18.006 162.062 19.0906C163.598 20.1751 164.591 21.576 165.088 23.2933H160.73C160.301 22.5928 159.782 22.0731 159.195 21.7342C158.585 21.3953 157.862 21.2371 157.027 21.2371C155.627 21.2371 154.521 21.689 153.663 22.5702C152.805 23.4514 152.375 24.5812 152.375 25.9369C152.375 27.3378 152.827 28.5127 153.73 29.4165C154.633 30.3429 155.785 30.7948 157.208 30.7948C157.93 30.7948 158.608 30.614 159.217 30.2525C159.849 29.8684 160.346 29.3939 160.73 28.7838Z" fill="#6E7171"/>
<path d="M79.8033 7.91863L81.1581 4.3789C81.4291 3.67997 81.6549 3.2065 81.8581 2.93595C82.0613 2.6654 82.3097 2.48503 82.6484 2.39484C83.2355 2.23702 83.6194 2.46248 83.7548 3.02613C83.8677 3.4996 83.5742 4.19853 82.8516 5.10037L80.2324 8.43719C80.0517 8.66265 79.9162 8.77538 79.8485 8.79793C79.713 8.82048 79.6453 8.79793 79.6001 8.66265C79.555 8.59501 79.6227 8.34701 79.8033 7.91863Z" fill="#4FBA69"/>
<path d="M81.4743 9.56438L83.9129 6.65594C84.3871 6.09229 84.771 5.70901 85.0419 5.50609C85.3129 5.30318 85.629 5.21299 85.9677 5.25808C86.5774 5.30318 86.8483 5.61882 86.8031 6.22756C86.758 6.72358 86.2612 7.26468 85.2677 7.89597L81.7001 10.1957C81.4517 10.3535 81.2936 10.4211 81.2033 10.4211C81.0678 10.4211 81.0001 10.3535 81.0227 10.2182C81.0227 10.128 81.1807 9.92512 81.4743 9.56438Z" fill="#4FBA69"/>
<path d="M82.9872 11.2781L86.329 9.49696C86.9838 9.15877 87.4806 8.9333 87.7967 8.86567C88.1354 8.77548 88.4515 8.82057 88.7451 8.9784C89.287 9.24895 89.4225 9.65478 89.1515 10.1959C88.9257 10.6243 88.2483 10.9625 87.0967 11.1654L82.9194 11.9545C82.6485 11.9996 82.4678 12.0221 82.3775 11.977C82.2646 11.9094 82.2195 11.8417 82.2872 11.729C82.3549 11.6388 82.5807 11.5036 82.9872 11.2781Z" fill="#4FBA69"/>
<path d="M142.463 7.96364L143.818 4.40136C144.088 3.70244 144.314 3.22897 144.517 2.93587C144.721 2.66532 144.969 2.48495 145.308 2.39476C145.895 2.23694 146.279 2.4624 146.437 3.0486C146.55 3.52207 146.256 4.221 145.534 5.14538L142.914 8.50475C142.734 8.73021 142.598 8.84294 142.53 8.86549C142.395 8.88803 142.327 8.86549 142.282 8.73021C142.214 8.64003 142.282 8.39202 142.463 7.96364Z" fill="#F16037"/>
<path d="M144.134 9.60954L146.595 6.67855C147.069 6.11489 147.453 5.73161 147.724 5.5287C147.995 5.32578 148.311 5.2356 148.65 5.25814C149.259 5.30323 149.553 5.64143 149.485 6.22762C149.44 6.72364 148.943 7.28729 147.927 7.91858L144.337 10.2408C144.088 10.3986 143.93 10.4663 143.84 10.4663C143.705 10.4663 143.637 10.3986 143.659 10.2634C143.682 10.1957 143.84 9.97027 144.134 9.60954Z" fill="#F16037"/>
<path d="M145.669 11.3457L149.033 9.56458C149.688 9.22639 150.185 9.00093 150.524 8.93329C150.862 8.84311 151.179 8.8882 151.472 9.04602C152.014 9.31658 152.15 9.72241 151.901 10.2635C151.675 10.6919 150.998 11.0301 149.824 11.233L145.624 12.0221C145.33 12.0672 145.15 12.0897 145.082 12.0447C144.969 11.977 144.924 11.8868 144.992 11.7966C145.037 11.7065 145.263 11.5486 145.669 11.3457Z" fill="#F16037"/>
<path d="M180.4 26.88V21.24H183.22C185.58 21.24 186.5 22.28 186.5 24.08C186.5 25.8 185.58 26.88 183.22 26.88H180.4ZM187.94 24.08C187.94 21.78 186.46 20.06 183.22 20.06H179V34.04H180.4V28.08H183.22C186.5 28.08 187.94 26.34 187.94 24.08Z" fill="#6E7171"/>
<path d="M201.569 28.58C201.569 25.1 199.189 22.96 196.109 22.96C193.049 22.96 190.649 25.1 190.649 28.58C190.649 32.04 192.989 34.2 196.069 34.2C199.149 34.2 201.569 32.04 201.569 28.58ZM192.069 28.58C192.069 25.58 194.009 24.18 196.089 24.18C198.169 24.18 200.129 25.58 200.129 28.58C200.129 31.58 198.129 32.98 196.069 32.98C193.989 32.98 192.069 31.58 192.069 28.58Z" fill="#6E7171"/>
<path d="M205.121 34.04H206.521V23.12H205.121V34.04ZM205.821 21.06C206.381 21.06 206.841 20.62 206.841 20.02C206.841 19.42 206.381 19 205.821 19C205.261 19 204.801 19.42 204.801 20.02C204.801 20.62 205.261 21.06 205.821 21.06Z" fill="#6E7171"/>
<path d="M218.871 34.04H220.251V27.64C220.251 24.44 218.291 22.92 215.811 22.92C214.191 22.92 212.791 23.62 212.091 24.98V23.12H210.691V34.04H212.091V28.08C212.091 25.42 213.511 24.14 215.551 24.14C217.551 24.14 218.871 25.38 218.871 27.8V34.04Z" fill="#6E7171"/>
<path d="M224.748 31.08C224.748 33.26 225.768 34.04 227.668 34.04H229.168V32.84H227.888C226.628 32.84 226.168 32.42 226.168 31.08V24.3H229.168V23.12H226.168V20.38H224.748V23.12H223.228V24.3H224.748V31.08Z" fill="#6E7171"/>
<path d="M240.037 31.14C239.977 27.28 233.517 28.86 233.517 25.9C233.517 24.94 234.437 24.16 235.897 24.16C237.557 24.16 238.457 25.08 238.537 26.3H239.937C239.817 24.2 238.277 22.96 235.937 22.96C233.637 22.96 232.097 24.3 232.097 25.92C232.097 30.02 238.657 28.44 238.657 31.14C238.657 32.18 237.777 33.02 236.217 33.02C234.437 33.02 233.397 32.16 233.277 30.96H231.837C232.017 32.96 233.757 34.2 236.237 34.2C238.497 34.2 240.037 32.9 240.037 31.14Z" fill="#6E7171"/>
<defs>
<linearGradient id="paint0_linear_1_1538" x1="0" y1="24.2729" x2="39.8731" y2="24.2729" gradientUnits="userSpaceOnUse">
<stop stop-color="#97C93D"/>
<stop offset="1" stop-color="#4FBA69"/>
</linearGradient>
</defs>
</svg>
